<svg width="198" height="198" viewBox="0 0 198 198" fill="none" xmlns="http://www.w3.org/2000/svg">
<g clip-path="url(#clip0_641_44781)">
<path d="M197.389 176.058C197.317 174.489 197.369 172.914 197.369 171.344C197.369 142.938 197.372 114.533 197.365 86.1275C197.365 84.1483 197.624 84.4141 195.595 84.4097C190.327 84.3965 185.059 84.3767 179.791 84.4316C178.707 84.4426 178.39 84.1988 178.392 83.0587C178.428 55.8242 178.412 28.5875 178.45 1.35299C178.45 0.221698 178.146 -0.00456128 177.064 -0.0023646C154.82 0.0327823 132.576 0.0261923 110.332 0.0305856C109.967 0.0305856 109.602 0.0525525 109.237 0.0635359C101.812 0.0481591 94.3852 0.0437658 86.9602 0.00861883C86.1115 0.00422546 86.2522 0.546807 86.2522 1.03667C86.2478 6.44711 86.25 11.8575 86.25 17.268C86.25 18.1994 85.7729 18.6651 84.8187 18.6651C56.9767 18.6673 29.1348 18.676 1.29283 18.6519C0.303419 18.6519 0.00659605 18.8891 0.00659605 19.9084C0.0285829 50.0008 0.0285829 80.0888 0 110.177C0 111.244 0.378174 111.429 1.32581 111.422C6.74117 111.385 12.1543 111.405 17.5697 111.407C18.5093 111.407 18.979 111.881 18.979 112.83C18.979 140.542 18.9856 168.253 18.9549 195.964C18.9549 197.001 19.1747 197.295 20.2565 197.293C50.1102 197.262 79.9662 197.264 109.82 197.302C110.948 197.302 111.203 197.007 111.192 195.913C111.135 189.991 111.181 184.069 111.148 178.147C111.144 177.323 111.374 177.061 112.199 177.103C113.329 177.16 114.464 177.086 115.596 177.07C116.071 177.083 116.546 177.108 117.021 177.108C140.544 177.112 164.07 177.114 187.594 177.119C190.485 177.119 193.374 177.09 196.266 177.138C197.099 177.152 197.429 176.96 197.387 176.062L197.389 176.058ZM94.2005 6.88425C99.0288 6.91061 103.859 6.89963 108.688 6.89523C108.868 6.89523 109.05 6.85789 109.231 6.83812C109.741 6.85349 110.253 6.88205 110.763 6.88205C130.551 6.88645 150.339 6.88864 170.128 6.89304C171.077 6.89304 171.552 7.36166 171.552 8.29891C171.552 36.8075 171.552 65.3161 171.552 93.8225C171.552 94.7553 171.078 95.2218 170.13 95.2218C152.281 95.224 134.43 95.2261 116.581 95.2305C116.106 95.2305 115.631 95.2547 115.156 95.2679C111.242 95.2503 107.329 95.1932 103.417 95.2437C102.384 95.2569 102.164 94.9384 102.166 93.9609C102.193 69.3206 102.179 44.6826 102.208 20.0424C102.208 18.988 102.03 18.5794 100.858 18.6365C98.5956 18.7441 96.3222 18.6453 94.0553 18.6826C93.3803 18.6936 93.1803 18.4937 93.1869 17.8171C93.2176 14.4914 93.2264 11.1634 93.1825 7.83761C93.1715 7.02923 93.4683 6.87766 94.1983 6.88205L94.2005 6.88425ZM18.9834 96.8209C18.9681 98.9781 18.9153 101.137 19.0076 103.292C19.0538 104.362 18.658 104.549 17.706 104.534C14.5223 104.483 11.3386 104.472 8.15712 104.54C7.13473 104.562 6.89727 104.25 6.89947 103.259C6.93025 85.2708 6.92146 67.2799 6.92146 49.2913C6.92146 41.8313 6.94345 34.3736 6.89727 26.9136C6.89068 25.8372 7.11714 25.5033 8.26486 25.5055C22.5365 25.5495 36.806 25.5341 51.0776 25.5341V25.5451C65.3493 25.5451 79.6188 25.5561 93.8904 25.5209C94.926 25.5187 95.2426 25.7516 95.2404 26.8345C95.2075 49.2122 95.2097 71.5898 95.236 93.9653C95.236 94.9604 94.9876 95.2415 93.9696 95.2393C69.4894 95.213 45.0093 95.2196 20.5291 95.2283C18.7328 95.2283 19.001 94.9977 18.9856 96.8187L18.9834 96.8209ZM104.209 189.409C104.218 190.198 103.949 190.391 103.204 190.382C99.7653 190.349 96.3244 190.369 92.8856 190.369C71.0769 190.373 49.2703 190.376 27.4616 190.38C26.3842 190.38 25.8455 189.858 25.8455 188.814C25.8455 174.59 25.8455 160.369 25.8455 146.145C25.8455 131.887 25.8565 117.628 25.8214 103.367C25.8192 102.313 26.0808 102.034 27.1472 102.036C49.3935 102.071 71.6419 102.075 93.8882 102.036C95.0711 102.036 95.2338 102.414 95.2338 103.453C95.2075 127.546 95.2206 151.641 95.1899 175.735C95.1899 176.8 95.3834 177.202 96.5509 177.147C98.7407 177.042 100.942 177.147 103.136 177.101C103.912 177.086 104.224 177.242 104.213 178.109C104.165 181.874 104.171 185.642 104.209 189.407V189.409ZM189.225 170.291C165.121 170.265 141.017 170.274 116.911 170.278C116.546 170.278 116.181 170.3 115.816 170.311C111.645 170.296 107.476 170.252 103.305 170.289C102.38 170.298 102.164 170.023 102.166 169.127C102.19 147.154 102.19 125.182 102.166 103.209C102.166 102.313 102.38 102.038 103.305 102.047C107.254 102.084 111.205 102.04 115.156 102.025C115.558 102.036 115.959 102.058 116.361 102.058C136.552 102.062 156.742 102.067 176.933 102.062C178.643 102.062 178.401 102.317 178.412 100.533C178.428 97.7919 178.45 95.0504 178.397 92.3112C178.379 91.472 178.637 91.2743 179.446 91.2853C182.774 91.3314 186.103 91.3424 189.43 91.2809C190.356 91.2633 190.479 91.5994 190.476 92.4012C190.454 107.277 190.461 122.153 190.461 137.027C190.461 147.698 190.446 158.372 190.485 169.044C190.49 170.056 190.215 170.293 189.223 170.293L189.225 170.291Z" fill="url(#paint0_linear_641_44781)"/>
<path d="M135.606 58.6976C136.776 58.032 137.926 57.3313 139.087 56.6459C142.371 54.8139 145.656 52.9797 149.11 51.0532C145.652 49.1223 142.367 47.2903 139.082 45.456C134.041 42.585 129.001 39.7117 123.955 36.845C123.909 36.8187 123.821 36.8626 123.771 36.8714V65.3536C124.144 65.1647 124.406 65.0439 124.657 64.9033C128.309 62.8384 131.961 60.7735 135.606 58.6976Z" fill="url(#paint1_linear_641_44781)"/>
<path d="M29.4332 52.76C38.1729 52.7271 46.9149 52.749 55.6547 52.749C56.0197 52.749 56.3824 52.7117 56.7452 52.6897C62.2551 52.7073 67.7672 52.7205 73.2771 52.7534C73.8532 52.7578 74.0401 52.5359 74.0291 51.9802C74.0027 50.7039 74.0027 49.4276 74.0291 48.1514C74.0401 47.5978 73.8598 47.3803 73.2793 47.3825C67.7694 47.4133 62.2573 47.4221 56.7474 47.4374C56.3099 47.4199 55.8724 47.3869 55.4348 47.3869C48.377 47.3869 41.3171 47.3913 34.2593 47.3957C32.5399 47.3957 30.8205 47.4265 29.1034 47.3847C28.3932 47.3671 28.1337 47.5824 28.1689 48.3073C28.2217 49.3639 28.2503 50.4315 28.1623 51.4837C28.0788 52.4964 28.4262 52.76 29.4288 52.7556L29.4332 52.76ZM56.5605 50.7215C56.5781 50.9411 56.5979 51.1586 56.6177 51.3783C56.5957 51.1586 56.5759 50.9411 56.5605 50.7215ZM56.51 49.4079C56.51 49.5177 56.51 49.6275 56.51 49.7352C56.51 49.6253 56.5078 49.5155 56.51 49.4079Z" fill="url(#paint2_linear_641_44781)"/>
<path d="M29.3235 65.2635C38.0281 65.235 46.7327 65.2548 55.4351 65.2548C55.7253 65.2548 56.0156 65.2174 56.308 65.1954C61.9652 65.213 67.6202 65.2262 73.2774 65.2591C73.8535 65.2613 74.0426 65.0417 74.0316 64.4859C74.0052 63.2096 74.0052 61.9334 74.0316 60.6571C74.0426 60.1013 73.8623 59.8861 73.2818 59.8883C67.6972 59.919 62.1147 59.9278 56.53 59.9432C56.0925 59.9256 55.655 59.8926 55.2174 59.8926C48.0849 59.8926 40.9546 59.897 33.822 59.9014C32.25 59.9014 30.6757 59.9344 29.1037 59.8905C28.3935 59.8707 28.134 60.0882 28.1692 60.8131C28.222 61.907 28.2418 63.0097 28.1648 64.0993C28.0989 65.0175 28.4067 65.2613 29.3191 65.2591L29.3235 65.2635Z" fill="url(#paint3_linear_641_44781)"/>
<path d="M65.5447 77.0532C65.5205 75.7373 65.5073 74.4215 65.5491 73.1079C65.5689 72.4884 65.2896 72.394 64.7641 72.3984C58.366 72.4269 51.9678 72.4401 45.5718 72.4577C40.0267 72.4445 34.4795 72.4357 28.9344 72.4072C28.3627 72.405 28.1648 72.5961 28.178 73.165C28.2088 74.404 28.2176 75.6451 28.1736 76.884C28.1495 77.5496 28.3693 77.7825 29.0421 77.7627C30.4998 77.7231 31.962 77.7583 33.4219 77.7539C37.4719 77.7385 41.5197 77.7187 45.5674 77.7012C52.0008 77.7209 58.4363 77.7363 64.8697 77.7693C65.4084 77.7715 65.5535 77.5584 65.5447 77.0575V77.0532Z" fill="url(#paint4_linear_641_44781)"/>
<path d="M82.5652 135.81C80.4215 131.913 76.941 130.237 72.6734 129.916C70.976 129.789 69.626 129.17 68.9026 127.551C68.5244 126.703 68.4805 125.78 68.4277 124.868C68.3339 123.196 67.4464 122.402 65.7651 122.487C64.6679 122.472 63.5686 122.509 62.4759 122.426C61.5898 122.358 61.3787 122.681 61.3831 123.533C61.4161 130.077 61.4007 136.621 61.4007 143.167C61.4007 144.555 61.3259 145.95 61.4249 147.334C61.4996 148.384 61.1457 148.564 60.2178 148.311C59.4637 148.105 58.6787 147.96 57.9004 147.898C50.5854 147.323 45.0095 153.882 45.9615 160.22C46.608 164.514 49.6971 168.341 53.8724 169.564C58.228 170.841 63.0761 169.422 65.8025 166.074C67.4163 164.114 68.3376 161.883 68.3595 159.328C68.3991 154.504 68.4167 149.678 68.4343 144.854C68.4431 142.26 68.4387 139.663 68.4343 137.069C68.4343 136.59 68.4233 136.197 69.1313 136.337C70.5978 136.634 72.0819 136.843 73.5506 137.135C75.026 137.427 76.0373 138.299 76.5474 139.727C76.7431 140.276 76.9454 140.825 77.1147 141.383C77.2224 141.741 77.3961 141.943 77.8029 141.943C79.8521 141.934 81.899 141.939 83.9482 141.943C84.3198 141.943 84.5265 141.794 84.4033 141.416C83.7899 139.549 83.5305 137.563 82.5652 135.812V135.81ZM57.1638 163.029C55.4599 163.04 52.7467 161.538 53.0215 158.842C52.7885 156.646 55.1213 154.818 57.1485 154.849C59.4857 154.884 61.4073 156.72 61.3633 158.957C61.3194 161.142 59.3845 163.016 57.166 163.029H57.1638Z" fill="url(#paint5_linear_641_44781)"/>
<path d="M173.74 112.96C173.74 111.42 172.984 110.65 171.471 110.651C164.266 110.667 157.063 110.687 149.858 110.704C149.493 110.684 149.13 110.649 148.765 110.649C139.218 110.649 129.672 110.671 120.125 110.634C119.094 110.63 118.872 110.941 118.874 111.917C118.905 124.491 118.907 137.062 118.874 149.636C118.872 150.625 119.112 150.921 120.132 150.917C128.874 150.882 137.616 150.904 146.358 150.904C146.72 150.904 147.083 150.851 147.446 150.822C147.774 150.844 148.099 150.886 148.427 150.886C156.474 150.895 164.521 150.879 172.566 150.928C173.564 150.934 173.764 150.629 173.762 149.691C173.731 137.447 173.742 125.205 173.742 112.96H173.74ZM129.228 146.477C128.902 146.8 128.566 146.996 128.078 146.985C126.616 146.958 125.151 146.947 123.691 146.989C122.994 147.009 122.805 146.73 122.84 146.086C122.882 145.284 122.851 144.478 122.851 143.674C122.851 143.564 122.867 143.452 122.849 143.345C122.519 141.48 123.322 140.199 124.632 138.87C126.141 137.343 127.862 136.05 129.274 134.435C129.645 134.011 129.925 133.866 130.408 134.358C132.049 136.025 133.726 137.655 135.417 139.272C135.868 139.703 135.87 139.971 135.413 140.408C133.333 142.409 131.281 144.443 129.23 146.473L129.228 146.477ZM168.698 146.987C162.05 146.965 155.401 146.978 148.75 146.987C148.312 146.987 147.875 147.015 147.437 147.033C143.565 147.013 139.693 147 135.822 146.969C135.441 146.967 135.019 147.112 134.614 146.743C135.859 145.504 137.099 144.281 138.326 143.044C140.122 141.236 141.835 139.32 143.702 137.611C146.635 134.927 149.335 132.014 152.268 129.336C152.507 129.119 152.699 128.851 152.914 128.605C153.728 127.823 154.561 127.061 155.348 126.25C155.735 125.853 155.983 125.839 156.388 126.244C160.689 130.514 165.005 134.771 169.332 139.015C169.686 139.362 169.778 139.716 169.774 140.175C169.758 142.11 169.723 144.045 169.787 145.979C169.815 146.853 169.464 146.993 168.696 146.991L168.698 146.987ZM169.771 132.57V133.64C169.063 133.398 168.637 132.987 168.213 132.563C164.334 128.693 160.436 124.84 156.586 120.939C155.997 120.341 155.669 120.374 155.139 120.945C154.198 121.962 153.196 122.924 152.217 123.908C148.899 127.149 145.581 130.391 142.264 133.633C141.296 134.578 140.313 135.507 139.379 136.484C138.917 136.968 138.627 136.95 138.152 136.471C135.621 133.936 133.04 131.456 130.512 128.919C129.999 128.405 129.716 128.418 129.221 128.928C127.539 130.657 125.807 132.337 124.092 134.031C123.76 134.358 123.412 134.668 123.021 135.035C122.757 134.615 122.856 134.248 122.856 133.908C122.849 127.88 122.871 121.85 122.829 115.822C122.823 114.847 123.047 114.533 124.081 114.54C132.233 114.588 140.388 114.57 148.541 114.573C148.978 114.573 149.416 114.544 149.854 114.529C156.071 114.542 162.289 114.577 168.507 114.548C169.472 114.544 169.809 114.744 169.8 115.792C169.745 121.382 169.774 126.975 169.774 132.568L169.771 132.57Z" fill="url(#paint6_linear_641_44781)"/>
<path d="M141.38 119.304C139.269 118.61 137.148 119.26 135.842 121.004C134.602 122.659 134.544 124.945 135.705 126.63C136.954 128.445 139.122 129.189 141.286 128.546C141.211 127.911 141.138 127.278 141.063 126.643C138.429 127.397 137.101 125.846 136.888 124.308C136.58 122.092 138.392 120.644 140.85 121.092C143.515 122.268 143.407 125.429 141.066 126.643C141.14 127.278 141.213 127.911 141.288 128.546C142.037 128.212 142.809 127.913 143.403 127.311C145.975 124.706 144.905 120.466 141.382 119.304H141.38Z" fill="url(#paint7_linear_641_44781)"/>
</g>
<defs>
<linearGradient id="paint0_linear_641_44781" x1="2.40427e-07" y1="85.1971" x2="197.39" y2="85.1971" gradientUnits="userSpaceOnUse">
<stop stop-color="#4ADC8C"/>
<stop offset="1" stop-color="#4ADCCA"/>
</linearGradient>
<linearGradient id="paint1_linear_641_44781" x1="123.771" y1="49.1508" x2="149.11" y2="49.1508" gradientUnits="userSpaceOnUse">
<stop stop-color="#4ADC8C"/>
<stop offset="1" stop-color="#4ADCCA"/>
</linearGradient>
<linearGradient id="paint2_linear_641_44781" x1="28.1504" y1="49.7046" x2="74.0296" y2="49.7046" gradientUnits="userSpaceOnUse">
<stop stop-color="#4ADC8C"/>
<stop offset="1" stop-color="#4ADCCA"/>
</linearGradient>
<linearGradient id="paint3_linear_641_44781" x1="28.1562" y1="62.2094" x2="74.0321" y2="62.2094" gradientUnits="userSpaceOnUse">
<stop stop-color="#4ADC8C"/>
<stop offset="1" stop-color="#4ADCCA"/>
</linearGradient>
<linearGradient id="paint4_linear_641_44781" x1="28.1719" y1="74.7176" x2="65.5501" y2="74.7176" gradientUnits="userSpaceOnUse">
<stop stop-color="#4ADC8C"/>
<stop offset="1" stop-color="#4ADCCA"/>
</linearGradient>
<linearGradient id="paint5_linear_641_44781" x1="45.8555" y1="142.976" x2="84.439" y2="142.976" gradientUnits="userSpaceOnUse">
<stop stop-color="#4ADC8C"/>
<stop offset="1" stop-color="#4ADCCA"/>
</linearGradient>
<linearGradient id="paint6_linear_641_44781" x1="118.874" y1="128.034" x2="173.762" y2="128.034" gradientUnits="userSpaceOnUse">
<stop stop-color="#4ADC8C"/>
<stop offset="1" stop-color="#4ADCCA"/>
</linearGradient>
<linearGradient id="paint7_linear_641_44781" x1="134.872" y1="123.238" x2="144.823" y2="123.238" gradientUnits="userSpaceOnUse">
<stop stop-color="#4ADC8C"/>
<stop offset="1" stop-color="#4ADCCA"/>
</linearGradient>
<clipPath id="clip0_641_44781">
<rect width="198" height="198" fill="white"/>
</clipPath>
</defs>
</svg>
