<svg width="199" height="199" viewBox="0 0 199 199" fill="none" xmlns="http://www.w3.org/2000/svg">
<g clip-path="url(#clip0_641_44773)">
<path d="M198.49 126.283C198.495 125.449 198.182 125.052 197.446 124.672C191.24 121.477 185.065 118.231 178.859 115.037C178.121 114.656 177.805 114.257 177.808 113.425C177.841 103.887 177.838 94.3495 177.808 84.812C177.808 84.0758 178.052 83.7034 178.728 83.3554C184.98 80.1324 191.202 76.8603 197.454 73.6438C198.206 73.258 198.49 72.8365 198.485 72.0179C198.45 64.2625 198.45 56.5049 198.488 48.7495C198.493 47.8974 198.231 47.4492 197.434 47.0387C189.91 43.1666 182.408 39.2565 174.919 35.3265C174.301 35.0031 173.888 35.0855 173.323 35.3822C167.094 38.6455 160.846 41.873 154.622 45.1428C153.921 45.5109 153.407 45.5287 152.692 45.154C143.35 40.2625 133.992 35.4001 124.624 30.5555C123.934 30.1986 123.742 29.7792 123.746 29.0655C123.779 24.0558 123.746 19.0462 123.781 14.0365C123.786 13.2736 123.548 12.8522 122.823 12.4774C115.277 8.58299 107.751 4.65511 100.226 0.725001C99.7387 0.470727 99.3386 0.399351 98.8162 0.682622C96.5525 1.91162 94.2651 3.10269 91.9872 4.30715C92.0296 5.32649 92.0555 6.34581 92.1072 7.36291C92.0579 6.34359 92.0296 5.32426 91.9872 4.30715C86.702 7.03949 81.4285 9.78968 76.122 12.4841C75.3808 12.8611 75.1643 13.2893 75.169 14.0432C75.1996 19.0529 75.169 24.0625 75.202 29.0744C75.2067 29.8461 74.9572 30.3034 74.223 30.6379C73.1335 31.1376 72.0887 31.7242 71.025 32.2796C62.9371 36.4931 54.8468 40.7086 46.7589 44.9264C46.206 45.2142 45.7401 45.4506 45.0458 45.0759C42.4056 43.6484 39.7135 42.3079 37.0521 40.9228C33.3387 38.9889 29.616 37.0707 25.9356 35.0812C25.0697 34.6127 24.439 34.6774 23.5989 35.1213C16.2475 38.9911 8.87737 42.8275 1.49307 46.6395C0.787117 47.003 0.50004 47.3867 0.504746 48.1696C0.537691 56.0008 0.537691 63.8297 0.504746 71.661C0.50004 72.4573 0.813019 72.8364 1.50956 73.1978C7.72668 76.4052 13.9108 79.6684 20.1397 82.8536C21.0057 83.2974 21.227 83.8015 21.2223 84.6692C21.194 94.2446 21.1821 103.82 21.2363 113.394C21.2433 114.508 20.8904 115.093 19.862 115.619C13.7367 118.745 7.65136 121.94 1.54955 125.11C0.961251 125.416 0.495329 125.69 0.500035 126.506C0.54004 134.45 0.530641 142.39 0.514168 150.332C0.514168 150.91 0.667093 151.253 1.24598 151.553C8.90089 155.512 16.5416 159.497 24.1802 163.485C24.5402 163.672 24.8767 163.851 25.2532 163.564C26.1003 162.915 27.1286 162.578 28.0676 162.091C33.6965 159.176 39.3183 156.248 44.9306 153.303C45.5636 152.971 46.046 152.919 46.7331 153.281C55.8658 158.075 65.0196 162.837 74.183 167.578C74.9407 167.971 75.209 168.421 75.202 169.232C75.1667 174.279 75.1831 179.326 75.1855 184.374C75.1855 184.847 75.1055 185.306 75.7008 185.61C80.346 187.983 84.9747 190.381 89.6081 192.771C92.6791 194.393 95.7594 196.001 98.8139 197.65C99.4562 197.997 99.9175 197.755 100.438 197.478C103.838 195.671 107.231 193.849 110.65 192.072C114.627 190.003 118.618 187.954 122.631 185.947C123.457 185.534 123.799 185.081 123.791 184.16C123.738 179.15 123.781 174.141 123.748 169.131C123.744 168.404 123.986 168.029 124.675 167.672C133.999 162.852 143.303 157.998 152.598 153.13C153.293 152.766 153.815 152.753 154.524 153.124C160.778 156.414 167.061 159.655 173.318 162.945C173.951 163.278 174.41 163.264 175.027 162.941C182.524 159.02 190.03 155.117 197.549 151.234C198.257 150.867 198.493 150.433 198.49 149.672C198.459 141.879 198.455 134.085 198.495 126.292L198.49 126.283ZM156.703 52.2915C156.7 51.667 156.874 51.2766 157.483 50.9621C162.771 48.2409 168.05 45.4997 173.313 42.7384C173.926 42.4171 174.365 42.3926 175.008 42.7317C180.229 45.4908 185.475 48.2097 190.729 50.9063C191.365 51.232 191.621 51.5844 191.61 52.2781C191.569 54.9859 191.592 57.6938 191.592 60.3993C191.592 63.0335 191.569 65.6655 191.61 68.2997C191.621 69.0067 191.435 69.4216 190.736 69.7807C185.444 72.4975 180.178 75.2543 174.913 78.0201C174.368 78.3078 173.946 78.2922 173.405 78.009C168.113 75.232 162.811 72.4729 157.495 69.7361C156.89 69.426 156.695 69.0581 156.697 68.4246C156.721 63.0469 156.721 57.6692 156.697 52.2915H156.703ZM82.998 16.2558C86.0242 14.7101 89.0104 13.0975 92.0131 11.5094C91.8954 11.2261 91.8108 10.9384 91.7801 10.644C91.8131 10.9406 91.8954 11.2261 92.0131 11.5094C94.2227 10.3562 96.4606 9.2499 98.6209 8.01868C99.2069 7.68411 99.6045 7.74657 100.08 7.99415C105.49 10.8023 110.893 13.6261 116.308 16.4276C116.747 16.6551 116.905 16.9227 116.903 17.3867C116.889 22.9473 116.887 28.5056 116.905 34.0663C116.905 34.5904 116.693 34.8357 116.223 35.0789C110.874 37.8446 105.539 40.6328 100.205 43.4253C99.6045 43.7399 99.1292 43.7287 98.4914 43.3695C96.4559 42.2275 94.3522 41.1904 92.2766 40.1131C89.1752 38.4692 86.0878 36.803 82.9604 35.2038C82.2709 34.8514 82.0474 34.4566 82.0521 33.7338C82.0827 28.3919 82.085 23.0476 82.0521 17.7057C82.0474 16.9629 82.3251 16.6016 83.0004 16.2558H82.998ZM8.15967 69.3213C7.55726 69.0112 7.34543 68.6676 7.34777 68.0276C7.37366 62.6097 7.37601 57.1941 7.34306 51.7762C7.33835 51.1138 7.61134 50.7881 8.1761 50.4959C13.4284 47.7815 18.6784 45.0603 23.9071 42.3034C24.5802 41.9488 25.0697 41.9822 25.7238 42.328C30.9479 45.0804 36.1861 47.806 41.4407 50.5049C42.0714 50.8283 42.2079 51.2254 42.2032 51.8321C42.182 54.5398 42.1938 57.2499 42.1938 59.9577C42.1938 62.6298 42.1702 65.2996 42.2103 67.9718C42.2197 68.6543 41.9843 69.029 41.349 69.3569C36.0943 72.067 30.8562 74.806 25.6227 77.5539C25.0508 77.855 24.5801 77.8752 23.9919 77.5651C18.7254 74.797 13.452 72.0446 8.16202 69.3213H8.15967ZM42.2055 146.53C42.2079 147.163 42.0008 147.508 41.3937 147.821C36.0332 150.573 30.689 153.357 25.3614 156.163C24.839 156.437 24.5143 156.289 24.086 156.067C18.7749 153.299 13.4638 150.533 8.13611 147.796C7.53134 147.486 7.34072 147.111 7.34777 146.483C7.38072 143.81 7.36191 141.141 7.36191 138.468C7.36191 135.76 7.38307 133.05 7.34542 130.342C7.33601 129.662 7.56195 129.294 8.20908 128.962C13.4779 126.256 18.7278 123.52 23.966 120.765C24.5402 120.464 24.9756 120.413 25.5709 120.727C30.8326 123.502 36.1061 126.256 41.3961 128.982C42.0008 129.294 42.2103 129.64 42.2079 130.276C42.1844 135.693 42.1844 141.109 42.2079 146.528L42.2055 146.53ZM116.197 181.934C110.848 184.7 105.509 187.481 100.179 190.28C99.6162 190.575 99.1904 190.495 98.6608 190.218C95.9241 188.786 93.1685 187.39 90.4176 185.98C87.935 184.659 85.4665 183.314 82.9604 182.039C82.2756 181.69 82.0451 181.296 82.0498 180.571C82.0826 175.236 82.0826 169.901 82.0498 164.565C82.0451 163.834 82.2921 163.441 82.9651 163.096C87.9115 160.561 92.8391 157.989 97.7666 155.426C98.0726 155.268 98.3527 155.068 98.6421 154.885C99.1927 154.653 99.6351 154.619 100.256 154.947C105.546 157.744 110.872 160.479 116.199 163.209C116.72 163.474 116.905 163.778 116.903 164.333C116.881 169.825 116.881 175.318 116.903 180.81C116.903 181.369 116.705 181.666 116.192 181.932L116.197 181.934ZM150.806 124.711C150.017 125.117 149.819 125.569 149.824 126.359C149.854 132.966 149.828 139.572 149.857 146.177C149.859 146.927 149.657 147.363 148.92 147.743C140.849 151.907 132.8 156.11 124.749 160.307C124.223 160.581 123.756 160.878 123.697 159.93C123.687 159.769 123.306 159.609 123.075 159.489C116.053 155.823 109.032 152.161 102.005 148.506C101.268 148.122 100.529 147.732 99.7575 147.426C98.8256 147.058 98.3315 147.921 97.6278 148.204C92.992 150.593 88.3539 152.98 83.7228 155.376C81.2167 156.671 78.7176 157.981 76.2209 159.294C75.7644 159.536 75.2913 159.68 75.1172 160.323C74.9596 160.907 74.4748 160.374 74.2159 160.242C70.9803 158.587 67.7635 156.906 64.5396 155.23C59.8426 152.788 55.1622 150.317 50.4393 147.921C49.4204 147.404 49.0204 146.835 49.0345 145.697C49.1051 139.389 49.0463 133.082 49.091 126.772C49.0981 125.895 48.7687 125.449 47.9921 125.047C41.6362 121.773 35.306 118.454 28.95 115.185C28.2723 114.836 28.0276 114.462 28.0299 113.728C28.0582 104.005 28.0605 94.2826 28.0252 84.5621C28.0229 83.8015 28.3241 83.4513 28.9712 83.1168C35.3225 79.8335 41.6502 76.5078 48.0133 73.2446C48.8251 72.8276 49.091 72.3658 49.0863 71.5138C49.051 65.0945 49.0887 58.6751 49.0416 52.2558C49.0345 51.3391 49.3734 50.8729 50.1899 50.4513C58.0542 46.3896 65.8951 42.29 73.7524 38.2149C74.3172 37.9227 75.0678 37.1354 75.362 38.516C75.3972 38.6878 75.7949 38.7993 76.035 38.9242C81.0355 41.5339 86.0384 44.1413 91.0412 46.7443C91.1754 46.8157 91.3306 46.8492 91.4766 46.9027C91.4648 45.6737 91.446 44.4491 91.5025 43.2202C91.446 44.4491 91.4672 45.6737 91.4766 46.9027C93.9545 48.2186 96.4442 49.5168 98.9009 50.8685C99.4068 51.1473 99.6775 50.8662 100.033 50.7011C105.4 48.2141 110.528 45.3057 115.79 42.6313C118.133 41.4402 120.454 40.209 122.79 39.0045C123.386 38.699 123.967 38.4045 123.762 37.4298C126.259 38.7212 128.584 39.9213 130.904 41.1257C136.905 44.2439 142.898 47.3733 148.908 50.4714C149.614 50.835 149.864 51.2699 149.862 52.0373C149.828 58.606 149.866 65.1747 149.817 71.7436C149.81 72.716 150.085 73.2602 151.014 73.7353C157.378 76.9941 163.7 80.3219 170.056 83.5919C170.73 83.9376 170.991 84.2967 170.989 85.0372C170.96 94.4632 170.96 103.892 170.989 113.317C170.989 114.013 170.746 114.359 170.12 114.682C163.677 118.018 157.262 121.396 150.81 124.711H150.806ZM190.736 147.399C185.442 150.112 180.173 152.873 174.911 155.643C174.365 155.931 173.958 155.92 173.41 155.631C168.181 152.884 162.942 150.151 157.683 147.453C156.978 147.089 156.688 146.694 156.693 145.911C156.731 140.608 156.728 135.301 156.695 129.997C156.691 129.272 156.921 128.875 157.601 128.519C161.853 126.292 166.056 123.977 170.327 121.787C171.407 121.231 172.548 120.758 173.629 120.189C174.071 119.958 174.391 120.031 174.805 120.247C180.175 123.058 185.55 125.857 190.944 128.629C191.551 128.942 191.604 129.354 191.602 129.901C191.588 132.609 191.596 135.317 191.596 138.025C191.596 140.659 191.574 143.293 191.61 145.927C191.619 146.627 191.445 147.038 190.734 147.402L190.736 147.399Z" fill="url(#paint0_linear_641_44773)"/>
<path d="M111.439 55.6439C106.16 54.4818 100.889 54.0134 95.5097 54.4305C94.4978 54.5086 93.4765 54.5353 92.474 54.6758C80.1245 56.4045 69.7305 61.5725 61.3367 70.3896C48.4789 83.8974 46.0551 104.568 55.682 120.341C62.9251 132.212 73.7686 139.57 87.7701 142.802C91.4645 143.656 95.2226 144.129 99.0442 144.004C104.574 144.167 109.967 143.369 115.208 141.743C124.011 139.011 131.593 134.527 137.649 127.773C139.983 125.168 142.129 122.473 143.809 119.46C152.424 104.028 150.796 85.1889 138.201 71.0766C131.118 63.1406 122.185 58.0105 111.436 55.6439H111.439ZM132.102 124.017C124.795 131.848 115.438 136.126 104.536 137.398C102.638 137.619 100.71 137.611 98.7947 137.71C93.2036 137.482 87.7653 136.556 82.5624 134.532C73.9286 131.17 67.0878 125.772 62.2991 118.18C55.7385 107.774 54.9078 96.8297 59.4306 85.5413C62.0755 78.9413 66.6196 73.635 72.4603 69.3212C79.2398 64.3138 86.9911 61.6126 95.5097 60.8007C103.929 60.145 111.996 61.4632 119.491 65.148C131.314 70.9628 139.09 79.9204 141.587 92.4647C143.959 104.391 140.538 114.974 132.102 124.017Z" fill="url(#paint1_linear_641_44773)"/>
<path d="M118.141 96.3056C118.145 95.7345 117.954 95.5271 117.336 95.5316C110.217 95.5673 103.099 95.5828 95.9803 95.603C91.2032 95.5851 86.4286 95.5806 81.6516 95.5427C80.8469 95.536 80.9175 96 80.9175 96.4929C80.9199 102.803 80.9316 109.111 80.9034 115.421C80.8987 116.177 81.1763 116.344 81.9152 116.337C85.245 116.309 88.5748 116.3 91.9021 116.348C92.7775 116.362 92.9258 116.043 92.9164 115.312C92.8787 112.527 92.9023 109.744 92.9023 106.961C92.9023 105.267 93.7746 104.394 95.519 104.342C95.6743 104.337 95.8296 104.304 95.9826 104.284C97.5263 104.067 98.2981 104.795 98.9617 106.08C100.609 109.269 102.444 112.37 104.193 115.515C104.461 115.996 104.704 116.346 105.4 116.34C109.311 116.309 113.224 116.318 117.136 116.34C117.882 116.344 117.898 116.128 117.58 115.582C116.3 113.377 115.048 111.157 113.789 108.941C112.949 107.463 112.112 105.979 111.189 104.348C113.375 104.348 115.326 104.328 117.274 104.36C117.935 104.371 118.155 104.162 118.147 103.534C118.117 101.126 118.121 98.7167 118.145 96.3078L118.141 96.3056Z" fill="url(#paint2_linear_641_44773)"/>
<path d="M117.101 81.9034C112.992 81.9256 108.885 81.9123 104.777 81.9257C101.767 81.9346 98.755 81.9681 95.7453 81.9925C91.0554 81.9725 86.3654 81.9547 81.6755 81.9257C81.1343 81.9213 80.9084 82.0997 80.9132 82.635C80.932 85.1175 80.932 87.6 80.9132 90.0825C80.9084 90.6178 81.1343 90.7963 81.6755 90.7919C86.2878 90.7628 90.8977 90.7449 95.5099 90.7249C102.786 90.7517 110.059 90.7695 117.333 90.8141C118.073 90.8186 118.143 90.4728 118.138 89.9197C118.122 87.5465 118.098 85.1732 118.15 82.8022C118.167 82.0082 117.797 81.9012 117.099 81.9056L117.101 81.9034Z" fill="url(#paint3_linear_641_44773)"/>
</g>
<defs>
<linearGradient id="paint0_linear_641_44773" x1="0.5" y1="85.7071" x2="198.495" y2="85.7071" gradientUnits="userSpaceOnUse">
<stop stop-color="#4ADC8C"/>
<stop offset="1" stop-color="#4ADCCA"/>
</linearGradient>
<linearGradient id="paint1_linear_641_44773" x1="49.8066" y1="93.0339" x2="149.191" y2="93.0339" gradientUnits="userSpaceOnUse">
<stop stop-color="#4ADC8C"/>
<stop offset="1" stop-color="#4ADCCA"/>
</linearGradient>
<linearGradient id="paint2_linear_641_44773" x1="80.9033" y1="104.521" x2="118.147" y2="104.521" gradientUnits="userSpaceOnUse">
<stop stop-color="#4ADC8C"/>
<stop offset="1" stop-color="#4ADCCA"/>
</linearGradient>
<linearGradient id="paint3_linear_641_44773" x1="80.9131" y1="85.7512" x2="118.151" y2="85.7512" gradientUnits="userSpaceOnUse">
<stop stop-color="#4ADC8C"/>
<stop offset="1" stop-color="#4ADCCA"/>
</linearGradient>
<clipPath id="clip0_641_44773">
<rect width="198" height="198" fill="white" transform="translate(0.5 0.5)"/>
</clipPath>
</defs>
</svg>
