<svg width="198" height="198" viewBox="0 0 198 198" fill="none" xmlns="http://www.w3.org/2000/svg">
<path fill-rule="evenodd" clip-rule="evenodd" d="M197.47 26.9974H192.646V4.882C192.454 4.87263 192.277 4.86194 192.109 4.85183L192.109 4.85182C191.784 4.83227 191.496 4.81487 191.208 4.81336C189.939 4.81242 188.67 4.8108 187.401 4.80918L187.399 4.80918C182.504 4.80293 177.609 4.79668 172.713 4.82938C171.688 4.83624 171.274 4.58917 171.366 3.50479C171.43 2.72538 171.416 1.94054 171.4 1.12399V1.12392V1.12385V1.12378V1.12371V1.12364V1.12357V1.1235V1.12343V1.12336V1.12328V1.12321V1.12313V1.12305V1.12297V1.12289V1.12281V1.12273V1.12252V1.1223V1.12209V1.12187V1.12165V1.12143V1.1212V1.12097V1.12074V1.12051V1.12028V1.12004V1.1198V1.11956V1.11931V1.11907V1.11882C171.393 0.753035 171.386 0.380883 171.386 0H197.47V26.9974ZM187.253 99.2551C187.084 149.063 146.277 188.522 97.2391 187.714C49.626 186.93 9.7017 147.725 10.3283 98.0357C10.9458 49.305 51.1422 10.1941 99.8875 10.7752C147.299 11.3402 187.08 49.9524 187.251 99.2528L187.253 99.2551ZM98.6822 182.876C144.781 182.759 181.856 145.689 182.297 100.182C182.748 53.6951 145.575 16.0026 99.0779 15.6228C53.5962 15.2522 15.7188 52.6656 15.1493 98.0174C14.5753 143.774 51.3504 182.663 98.6822 182.876ZM25.6214 5.32353H27.1445C27.1445 4.92066 27.1384 4.53593 27.1326 4.16392C27.1197 3.3475 27.1079 2.5924 27.1628 1.84162C27.2383 0.807565 26.9021 0.459832 25.8364 0.464407C17.6534 0.503299 9.47054 0.505586 1.28764 0.475846C0.297362 0.47127 -0.00452297 0.757236 5.1044e-05 1.7707C0.0293005 7.36885 0.0273763 12.9682 0.025452 18.5678C0.024668 20.8492 0.023884 23.1306 0.0252081 25.412C0.0252081 25.6513 0.0440073 25.8905 0.0640343 26.1454L0.0640359 26.1454C0.0744562 26.278 0.0852087 26.4149 0.0938183 26.5581C0.46833 26.5581 0.831093 26.5493 1.18516 26.5407H1.18519H1.18522H1.18525H1.18529H1.18532H1.18535H1.18537H1.1854H1.18543H1.18546H1.18549H1.18552H1.18554H1.18557H1.18559H1.18562C1.95787 26.5219 2.68876 26.5042 3.40998 26.581C4.60837 26.7069 4.88281 26.247 4.87366 25.1192C4.83647 20.645 4.84176 16.1709 4.84705 11.6968V11.6966C4.84892 10.1175 4.85079 8.53837 4.85079 6.95925C4.85079 5.32124 4.85536 5.32124 6.43797 5.32124C9.63254 5.32124 12.8271 5.32181 16.0217 5.32238L16.0297 5.32238L16.0377 5.32238C19.2322 5.32296 22.4268 5.32353 25.6214 5.32353ZM198 171.952V197.92H170.895C170.895 197.574 170.892 197.228 170.889 196.883L170.889 196.879C170.88 195.825 170.871 194.777 170.945 193.733C170.961 193.511 171.642 193.175 172.017 193.171C174.928 193.137 177.839 193.139 180.75 193.14C181.646 193.141 182.541 193.141 183.436 193.141H191.544C192.639 193.141 193.186 192.574 193.186 191.441C193.186 189.929 193.187 188.417 193.189 186.905V186.905V186.904V186.904V186.904V186.904V186.904V186.904V186.903V186.903V186.903V186.903V186.903C193.192 182.361 193.196 177.819 193.165 173.279C193.159 172.256 193.424 171.842 194.501 171.931C195.278 171.995 196.06 171.98 196.876 171.965H196.876C197.242 171.959 197.614 171.952 197.996 171.952H198ZM25.3082 197.982H26.6301H26.637C26.637 197.579 26.6301 197.194 26.6235 196.821C26.6092 196.012 26.5958 195.261 26.6553 194.516C26.7376 193.463 26.3808 193.15 25.3242 193.157C22.2402 193.18 19.1562 193.18 16.0722 193.181C12.9881 193.181 9.9041 193.182 6.82007 193.205C5.74518 193.212 5.38383 192.942 5.39298 191.812C5.43215 186.962 5.42694 182.113 5.42172 177.263C5.41993 175.6 5.41814 173.938 5.41814 172.275V170.861C5.0304 170.861 4.65901 170.868 4.29925 170.875C3.51739 170.891 2.79046 170.906 2.06996 170.84C0.933321 170.735 0.567401 171.089 0.574262 172.272C0.622289 180.384 0.620002 188.497 0.576549 196.609C0.569688 197.732 0.928747 198.005 2.00821 198C7.72844 197.97 13.4487 197.974 19.1689 197.978H19.1764C21.2204 197.98 23.2643 197.982 25.3082 197.982ZM127.89 101.627C127.976 96.5944 127.48 91.6575 125.221 87.0684C120.631 77.7482 113.276 72.0929 102.957 70.4481C96.441 69.4094 90.3369 70.6929 84.56 73.7859C82.2021 75.0487 79.9837 74.2045 79.4051 71.8573C79.0643 70.4801 79.7938 69.1372 81.4817 68.1695C84.6057 66.3805 87.9264 65.0696 91.4576 64.3856C107.11 61.3498 122.394 68.4395 130.085 82.3694C133.008 87.6655 134.307 93.4145 134.245 99.4678C134.142 109.589 133.143 119.586 130.186 129.32C127.501 138.155 123.544 146.302 117.346 153.25C116.917 153.733 116.48 154.215 116.009 154.655C114.636 155.936 112.834 156.041 111.569 154.945C110.291 153.835 110.129 151.909 111.27 150.402C111.876 149.601 112.528 148.833 113.18 148.066L113.181 148.064L113.182 148.063L113.182 148.063L113.183 148.062L113.183 148.062L113.184 148.061L113.184 148.061L113.184 148.06L113.185 148.06L113.185 148.059C113.468 147.726 113.751 147.393 114.03 147.057C118.959 141.134 122.113 134.294 124.207 126.95C126.565 118.682 127.734 110.222 127.887 101.625L127.89 101.627ZM120.031 88.5714C115.412 80.0565 108.217 75.7602 98.2271 75.465L98.2317 75.4696C97.9975 75.4923 97.7348 75.5142 97.4521 75.5378L97.4513 75.5378C96.7649 75.5951 95.9609 75.6621 95.1625 75.7739C84.7864 77.222 76.2787 85.9405 75.2038 96.3496C74.9283 99.012 74.736 101.683 74.5436 104.353L74.5436 104.354L74.5435 104.354L74.5435 104.355L74.5435 104.355L74.5434 104.356L74.5434 104.356L74.5433 104.357L74.5433 104.357L74.5432 104.358L74.5432 104.359L74.5431 104.359L74.5431 104.36C74.3858 106.543 74.2286 108.726 74.026 110.904C73.5686 115.843 72.6424 120.696 70.5864 125.255C68.1964 130.558 65.0953 135.092 58.8426 136.382C57.1113 136.739 56.2102 138.393 56.5259 139.931C56.8986 141.745 58.3166 142.875 60.2217 142.463C62.129 142.051 64.0753 141.484 65.7974 140.59C70.8677 137.956 73.9597 133.511 76.1918 128.421C79.7618 120.279 80.9076 111.641 81.2918 102.851C81.3093 102.445 81.3243 102.037 81.3393 101.63C81.4071 99.792 81.4751 97.9487 81.7652 96.1438C83.2609 86.8442 92.3747 80.3722 101.61 82.0788C107.391 83.1472 111.631 86.4278 114.399 91.6209C115.432 93.5586 117.138 94.1809 118.84 93.2933C120.553 92.3988 121.067 90.4816 120.031 88.5714ZM96.8641 51.9907C97.1345 51.9907 97.4063 51.9808 97.6781 51.9709C98.2818 51.9489 98.8853 51.9268 99.4735 52.0136C100.956 52.231 101.907 53.4297 101.982 54.9716C102.053 56.4632 101.152 57.8336 99.6725 58.0784C98.6427 58.248 97.5974 58.3171 96.5519 58.3862L96.5518 58.3862L96.5517 58.3862L96.5517 58.3862L96.5516 58.3863L96.5515 58.3863L96.5514 58.3863L96.5513 58.3863L96.5512 58.3863L96.5511 58.3863L96.551 58.3863L96.5509 58.3863C95.8902 58.43 95.2295 58.4737 94.5725 58.5428C85.9093 59.451 78.2433 62.8094 71.7344 68.5081C63.1993 75.9798 58.7785 85.5974 57.9461 96.8781C57.8466 98.2296 57.787 99.5857 57.7274 100.942V100.942V100.942V100.942V100.942V100.942V100.942V100.942V100.942V100.942V100.942V100.942C57.6265 103.236 57.5257 105.529 57.2325 107.797C56.6585 112.238 55.188 116.408 51.7506 119.54C50.8564 120.355 49.722 121.027 48.5785 121.418C47.3138 121.851 46.1954 121.235 45.4819 120.071C44.7775 118.923 44.8049 117.76 45.5619 116.646C45.7929 116.305 46.0811 115.974 46.4104 115.734C49.1663 113.723 50.3807 110.854 50.7077 107.614C50.9867 104.858 51.168 102.092 51.3493 99.3251L51.3493 99.3242L51.3494 99.3232L51.3495 99.3223L51.3495 99.3213L51.3496 99.3203L51.3497 99.3194L51.3498 99.3184L51.3498 99.3175L51.3499 99.3165L51.35 99.3155L51.35 99.3146C51.4345 98.0255 51.5189 96.7364 51.6134 95.4483C52.2857 86.2379 55.531 78.0136 61.0907 70.6677C68.8665 60.389 79.1786 54.4111 91.8715 52.4597C92.6971 52.3316 93.525 52.2127 94.3575 52.1303C94.92 52.0746 95.4845 52.043 96.0491 52.0115L96.0492 52.0114L96.0494 52.0114L96.0496 52.0114L96.0497 52.0114L96.0499 52.0114L96.05 52.0114L96.0502 52.0114L96.0504 52.0114L96.0505 52.0113L96.0507 52.0113L96.0508 52.0113C96.3212 51.9962 96.5916 51.9811 96.8618 51.9633V51.9976L96.8641 51.9907ZM131.027 49.7556C121.269 43.4072 110.52 40.3668 98.0579 40.0763H98.0556C97.5748 40.1148 97.026 40.1542 96.4285 40.1971L96.4233 40.1975L96.4216 40.1976L96.4215 40.1976C94.8913 40.3075 93.0428 40.4403 91.2014 40.6391C82.1243 41.6228 74.0077 45.2168 66.312 49.9181C64.9192 50.7691 64.4137 52.1189 64.8643 53.5258C65.3606 55.0746 66.5978 55.9988 68.249 55.7723C69.0655 55.6602 69.8751 55.1958 70.6001 54.752C78.735 49.7671 87.4896 46.8525 97.0859 46.6283C106.236 46.4133 114.915 48.2503 123.032 52.5329C123.924 53.0036 124.791 53.5201 125.658 54.0366C126.489 54.5319 127.32 55.0271 128.173 55.4818C130.261 56.5936 132.608 55.4635 132.896 53.2627C133.104 51.6636 132.294 50.5792 131.027 49.7556ZM157.881 100.612C158.165 105.821 156.413 112.043 154.572 118.248C154.511 118.453 154.452 118.659 154.393 118.865C154.221 119.463 154.05 120.06 153.833 120.641C153.253 122.196 151.723 123.013 150.193 122.633C148.505 122.215 147.43 120.874 147.766 119.181C148.082 117.592 148.525 116.028 148.968 114.464L148.969 114.464L148.969 114.463L148.969 114.463L148.969 114.462L148.969 114.462L148.969 114.462L148.969 114.461C149.147 113.833 149.325 113.204 149.495 112.574C153.737 96.8301 150.943 82.3213 141.82 68.929C141.591 68.594 141.349 68.2684 141.107 67.9428L141.107 67.9426L141.107 67.9423L141.107 67.942L141.107 67.9417L141.106 67.9415L141.106 67.9412L141.106 67.9409L141.106 67.9406C140.917 67.6866 140.728 67.4327 140.546 67.1743C139.192 65.2527 139.338 63.3973 140.93 62.2306C142.508 61.073 144.304 61.4894 145.747 63.3859C149.34 68.1077 152.219 73.2276 154.243 78.812C156.63 85.4098 157.879 92.2134 157.884 100.612H157.881ZM133.01 76.8308C137.9 84.3986 139.791 92.7762 139.542 101.701L139.54 101.703C139.54 102.194 139.534 102.685 139.527 103.176L139.527 103.18V103.18V103.18V103.18V103.18V103.18V103.181V103.181V103.181C139.514 104.288 139.5 105.395 139.556 106.498C139.647 108.319 140.905 109.502 142.622 109.541C144.377 109.58 145.774 108.374 145.909 106.567C146.25 101.966 146.378 97.3585 145.646 92.7831C143.247 77.7642 135.709 66.1746 122.538 58.3964C121.2 57.6071 119.821 56.8499 118.382 56.2711C116.718 55.6008 115.238 56.2024 114.467 57.6254C113.63 59.1719 113.962 60.5811 115.492 61.7136C115.96 62.0605 116.48 62.3419 116.997 62.6211C117.083 62.6678 117.169 62.7145 117.255 62.7613C123.601 66.2272 129.051 70.7043 133.01 76.8308ZM110.755 100.335C110.433 110.211 108.397 119.705 104.416 128.764C103.643 130.524 102.387 131.338 100.917 131.116C98.5793 130.766 97.6325 128.677 98.5061 126.232C98.6237 125.903 98.7414 125.575 98.8592 125.246L98.8593 125.246L98.8593 125.246L98.8593 125.246L98.8593 125.246L98.8594 125.246L98.8594 125.245L98.8594 125.245C100.138 121.679 101.419 118.104 102.428 114.459C103.791 109.531 104.315 104.444 104.32 99.3305C104.324 94.8649 99.7297 92.218 95.9081 94.4371C94.2111 95.4208 93.3123 96.9422 93.1431 98.905C92.9533 101.104 91.8921 102.179 89.8681 102.257C88.0499 102.327 86.943 101.332 86.7875 99.493C86.3621 94.4257 90.2272 89.1136 95.3844 87.6815C103.215 85.5058 110.703 91.1725 110.751 99.3077V100.335H110.755ZM108.02 148.848C117.17 137.332 120.827 123.827 122.163 109.962C122.264 107.383 121.095 105.908 119.204 105.738C117.438 105.581 116.141 106.905 115.8 108.985C115.597 110.232 115.406 111.483 115.216 112.734L115.216 112.735L115.216 112.736L115.216 112.736L115.216 112.736L115.216 112.736L115.216 112.736L115.216 112.736C114.674 116.297 114.133 119.859 113.273 123.342C110.806 133.349 106.298 142.312 98.6433 149.45C97.994 150.055 97.3081 150.622 96.6221 151.188C95.9576 151.737 95.293 152.286 94.6617 152.87C93.3169 154.117 93.3009 155.849 94.5153 157.256C95.7251 158.658 97.2208 158.834 98.7257 157.743C102.227 155.199 105.331 152.234 108.02 148.848ZM39.7026 97.2258C40.1783 86.9425 42.8564 77.3135 48.2446 68.4944C50.774 64.3513 53.7883 60.5903 57.2554 57.1976C59.1628 55.3331 61.6213 55.587 62.7031 57.7169C63.3709 59.0323 63.0209 60.4164 61.7082 61.8554C61.305 62.2977 60.8968 62.7364 60.4887 63.1752C59.3158 64.4359 58.1426 65.697 57.0839 67.0462C50.9524 74.8702 47.4487 83.7809 46.3738 93.6456C46.2357 94.9092 46.1884 96.1837 46.1411 97.4568V97.4568V97.4569V97.457V97.457C46.1235 97.9333 46.1058 98.4093 46.0834 98.8844C45.9988 100.657 45.2852 101.744 43.8513 102.247C42.4768 102.73 41.2555 102.334 40.16 100.962C39.9016 100.637 39.7552 100.156 39.7209 99.7355C39.6738 99.1442 39.6832 98.5494 39.6927 97.9545V97.9544L39.6927 97.9538C39.6965 97.7111 39.7004 97.4684 39.7004 97.2258H39.7026ZM67.2186 149.274C67.3591 149.384 67.5081 149.502 67.6727 149.624V149.626C68.2654 149.449 68.8737 149.272 69.4919 149.093L69.4932 149.092L69.4958 149.092C70.8801 148.689 72.3138 148.273 73.731 147.805C76.3405 146.945 78.6252 145.513 80.5074 143.511C83.3296 140.51 85.5457 137.131 87.1306 133.294C89.4267 127.737 90.7829 121.952 91.7457 116.051C92.0453 114.214 91.0025 112.695 89.3261 112.35C87.4416 111.963 85.9276 112.888 85.4565 114.812C85.1883 115.905 84.9781 117.014 84.7678 118.122L84.7678 118.122L84.7678 118.122L84.7677 118.123L84.7677 118.123C84.6947 118.508 84.6217 118.893 84.5462 119.277C83.5926 124.143 82.353 128.918 79.9859 133.317C77.253 138.398 73.6715 142.36 67.3937 142.772C66.0101 142.861 64.9626 144.026 64.7179 145.376C64.4801 146.684 65.173 148.004 66.4149 148.702C66.6869 148.855 66.9355 149.051 67.2186 149.274ZM128.029 144.171L128.03 144.171C128.189 143.706 128.361 143.205 128.672 142.813C133.555 136.65 135.903 129.426 137.532 121.892L137.554 121.785L137.587 121.627L137.588 121.626C137.631 121.417 137.675 121.208 137.726 121.002C138.254 118.9 139.874 117.84 141.754 118.303C143.38 118.701 144.717 120.927 144.107 122.739C143.418 124.787 142.773 126.851 142.129 128.914L142.129 128.915L142.129 128.916C141.2 131.892 140.271 134.867 139.208 137.794C138.012 141.091 136.013 144.019 133.742 146.712C132.118 148.638 129.207 148.368 128.228 146.243C128.106 145.975 128.038 145.683 127.958 145.334L127.958 145.334L127.958 145.333L127.958 145.333C127.916 145.154 127.872 144.96 127.814 144.746L127.817 144.749C127.892 144.571 127.96 144.375 128.029 144.171L128.029 144.171L128.029 144.171ZM49.26 131.189C49.5642 132.708 50.71 133.585 52.4275 133.694C52.6495 133.637 52.8734 133.587 53.0971 133.536C53.574 133.427 54.0503 133.319 54.5064 133.152C58.5796 131.665 61.276 128.629 63.4738 125.058C66.3142 120.444 67.6407 115.29 68.6035 110.044C68.7407 109.296 68.1804 108.122 67.5606 107.582C65.3766 105.681 63.0026 106.573 62.1747 109.399C61.9582 110.138 61.7455 110.879 61.5328 111.62L61.5325 111.621C60.7501 114.347 59.967 117.076 58.989 119.73C57.619 123.45 55.1216 126.223 51.2314 127.568C49.8524 128.044 48.9833 129.81 49.26 131.189ZM63.2908 97.8344C63.627 89.9966 66.209 82.9894 71.1467 76.8766C71.9677 75.8608 73.0083 75.1448 74.4011 75.4124C76.8253 75.8768 77.7607 78.3933 76.3428 80.5621C75.9863 81.1065 75.6179 81.6442 75.2496 82.1819L75.2493 82.1823C74.4785 83.3074 73.7079 84.4323 73.0472 85.618C70.7647 89.713 69.7402 94.1626 69.6212 98.8341C69.5526 101.543 67.579 103.066 65.2576 102.218C64.0638 101.781 63.4212 100.9 63.3 99.66C63.2592 99.2475 63.27 98.8295 63.2809 98.4114C63.2858 98.2197 63.2908 98.028 63.2908 97.8367V97.8344ZM95.4326 134.754C95.3986 134.773 95.3707 134.803 95.174 134.934V134.939C95.0112 135.142 94.8507 135.336 94.6941 135.526C94.3465 135.947 94.0179 136.344 93.7263 136.767C93.4386 137.182 93.1726 137.612 92.9067 138.042C92.6124 138.518 92.3182 138.994 91.995 139.448C88.9007 143.792 84.8847 147 80.0225 149.191C77.9894 150.107 77.2713 151.802 78.0191 153.531C78.7555 155.229 80.4914 155.917 82.4262 155.089C90.0053 151.845 95.7457 146.565 99.6107 139.272C100.182 138.19 100.132 137.103 99.533 136.003L99.5329 136.003C99.5123 135.961 99.4918 135.92 99.4758 135.879C99.1648 135.108 98.465 134.568 97.6348 134.568H96.5073C96.3958 134.562 96.3241 134.549 96.2662 134.538C96.1294 134.513 96.0697 134.502 95.7434 134.632C95.5087 134.726 95.4675 134.734 95.4326 134.754Z" fill="url(#paint0_linear_663_40224)"/>
<defs>
<linearGradient id="paint0_linear_663_40224" x1="2.4117e-07" y1="85.5" x2="198" y2="85.5" gradientUnits="userSpaceOnUse">
<stop stop-color="#4ADC8C"/>
<stop offset="1" stop-color="#4ADCCA"/>
</linearGradient>
</defs>
</svg>
