<svg width="143" height="28" viewBox="0 0 143 28" fill="none" xmlns="http://www.w3.org/2000/svg">
<path d="M0 27.5631V0.43693H18.0725V4.80624H4.96537V11.7607H17.3423V16.13H4.96537V23.1938H18.0725V27.5631H0Z" fill="url(#paint0_linear_7186_21517)"/>
<path d="M31.4252 28C29.6971 28 28.0906 27.6844 26.6059 27.0533C25.1455 26.4222 23.8798 25.5483 22.8088 24.4317C21.7622 23.2909 20.9955 21.9679 20.5087 20.4629L24.6343 18.6788C25.2915 20.2323 26.2408 21.4582 27.4821 22.3563C28.7234 23.2302 30.123 23.6671 31.6808 23.6671C32.557 23.6671 33.3115 23.5336 33.9444 23.2666C34.6016 22.9753 35.1005 22.5869 35.4413 22.1014C35.8064 21.6159 35.989 21.0334 35.989 20.3537C35.989 19.5527 35.7456 18.8973 35.2588 18.3875C34.7963 17.8535 34.0904 17.4408 33.1412 17.1495L27.9202 15.4746C25.8026 14.8192 24.2084 13.8362 23.1374 12.5254C22.0664 11.2146 21.531 9.67317 21.531 7.90117C21.531 6.34764 21.9082 4.97616 22.6628 3.78673C23.4417 2.59731 24.5126 1.6749 25.8757 1.01951C27.263 0.339835 28.8451 0 30.622 0C32.2528 0 33.7497 0.291287 35.1127 0.873862C36.4758 1.43216 37.6441 2.22107 38.6177 3.24057C39.6156 4.2358 40.358 5.41309 40.8448 6.77243L36.7557 8.59298C36.2202 7.23364 35.417 6.18986 34.346 5.46164C33.275 4.70915 32.0337 4.3329 30.622 4.3329C29.7944 4.3329 29.0642 4.47854 28.4314 4.76983C27.7985 5.03684 27.2996 5.42523 26.9345 5.93498C26.5937 6.42046 26.4233 7.00303 26.4233 7.6827C26.4233 8.4352 26.6667 9.10273 27.1535 9.6853C27.6403 10.2436 28.3827 10.6805 29.3806 10.9961L34.3825 12.5618C36.5488 13.2657 38.1674 14.2367 39.2384 15.4746C40.3337 16.7126 40.8813 18.2419 40.8813 20.0624C40.8813 21.6159 40.4797 22.9874 39.6765 24.1769C38.8732 25.3663 37.7658 26.3008 36.3541 26.9805C34.9423 27.6602 33.2994 28 31.4252 28Z" fill="url(#paint1_linear_7186_21517)"/>
<path d="M58.1309 28C56.1837 28 54.3825 27.648 52.7274 26.9441C51.0966 26.2401 49.6606 25.257 48.4192 23.9948C47.2022 22.7326 46.2529 21.2518 45.5714 19.5527C44.8899 17.8535 44.5491 15.9965 44.5491 13.9818C44.5491 11.9671 44.8777 10.1101 45.5349 8.41092C46.2164 6.68747 47.1657 5.20676 48.3827 3.96879C49.624 2.70655 51.0723 1.73559 52.7274 1.05592C54.3825 0.351972 56.1837 0 58.1309 0C60.0781 0 61.8184 0.327698 63.3518 0.983095C64.9096 1.63849 66.224 2.51235 67.2949 3.60468C68.3659 4.67273 69.1326 5.85002 69.5951 7.13654L65.1408 9.21196C64.6297 7.85262 63.7656 6.73602 62.5486 5.86216C61.3316 4.96402 59.859 4.51495 58.1309 4.51495C56.4271 4.51495 54.918 4.91547 53.6036 5.71651C52.3136 6.51755 51.3035 7.62202 50.5733 9.02991C49.8674 10.4378 49.5145 12.0884 49.5145 13.9818C49.5145 15.8752 49.8674 17.5379 50.5733 18.9701C51.3035 20.378 52.3136 21.4824 53.6036 22.2835C54.918 23.0845 56.4271 23.485 58.1309 23.485C59.859 23.485 61.3316 23.0481 62.5486 22.1742C63.7656 21.2761 64.6297 20.1474 65.1408 18.788L69.5951 20.8635C69.1326 22.15 68.3659 23.3394 67.2949 24.4317C66.224 25.4998 64.9096 26.3615 63.3518 27.0169C61.8184 27.6723 60.0781 28 58.1309 28Z" fill="url(#paint2_linear_7186_21517)"/>
<path d="M73.6263 27.5631V0.43693H78.5917V12.2705H90.1654V0.43693H95.1672V27.5631H90.1654V16.6398H78.5917V27.5631H73.6263Z" fill="url(#paint3_linear_7186_21517)"/>
<path d="M100.403 27.5631V0.43693H118.475V4.80624H105.368V11.7607H117.745V16.13H105.368V23.1938H118.475V27.5631H100.403Z" fill="url(#paint4_linear_7186_21517)"/>
<path d="M122.116 27.5631V0.43693H132.23C134.079 0.43693 135.71 0.776766 137.122 1.45644C138.558 2.11183 139.678 3.08279 140.481 4.36931C141.284 5.63156 141.686 7.17295 141.686 8.9935C141.686 10.8626 141.235 12.4525 140.335 13.7633C139.459 15.0741 138.266 16.0451 136.757 16.6762L143 27.5631H137.377L130.696 15.6567L133.909 17.5501H127.082V27.5631H122.116ZM127.082 13.1808H132.303C133.203 13.1808 133.982 13.0108 134.639 12.671C135.296 12.3069 135.808 11.8093 136.173 11.1782C136.538 10.547 136.72 9.81881 136.72 8.9935C136.72 8.14391 136.538 7.41569 136.173 6.80884C135.808 6.17772 135.296 5.69224 134.639 5.35241C133.982 4.9883 133.203 4.80624 132.303 4.80624H127.082V13.1808Z" fill="url(#paint5_linear_7186_21517)"/>
<defs>
<linearGradient id="paint0_linear_7186_21517" x1="1.74178e-07" y1="12.0909" x2="143" y2="12.0909" gradientUnits="userSpaceOnUse">
<stop stop-color="#4ADC8C"/>
<stop offset="1" stop-color="#4ADCCA"/>
</linearGradient>
<linearGradient id="paint1_linear_7186_21517" x1="1.74178e-07" y1="12.0909" x2="143" y2="12.0909" gradientUnits="userSpaceOnUse">
<stop stop-color="#4ADC8C"/>
<stop offset="1" stop-color="#4ADCCA"/>
</linearGradient>
<linearGradient id="paint2_linear_7186_21517" x1="1.74178e-07" y1="12.0909" x2="143" y2="12.0909" gradientUnits="userSpaceOnUse">
<stop stop-color="#4ADC8C"/>
<stop offset="1" stop-color="#4ADCCA"/>
</linearGradient>
<linearGradient id="paint3_linear_7186_21517" x1="1.74178e-07" y1="12.0909" x2="143" y2="12.0909" gradientUnits="userSpaceOnUse">
<stop stop-color="#4ADC8C"/>
<stop offset="1" stop-color="#4ADCCA"/>
</linearGradient>
<linearGradient id="paint4_linear_7186_21517" x1="1.74178e-07" y1="12.0909" x2="143" y2="12.0909" gradientUnits="userSpaceOnUse">
<stop stop-color="#4ADC8C"/>
<stop offset="1" stop-color="#4ADCCA"/>
</linearGradient>
<linearGradient id="paint5_linear_7186_21517" x1="1.74178e-07" y1="12.0909" x2="143" y2="12.0909" gradientUnits="userSpaceOnUse">
<stop stop-color="#4ADC8C"/>
<stop offset="1" stop-color="#4ADCCA"/>
</linearGradient>
</defs>
</svg>
